<svg width="1425" height="311" viewBox="0 0 1425 311" fill="none" xmlns="http://www.w3.org/2000/svg">
<g opacity="0.05" clip-path="url(#clip0_842_1950)">
<path d="M1279.42 370.283H1271.42V356.78C1271.42 353.111 1268.13 350.134 1264.05 350.134H1256.47V338.165C1256.47 338.096 1256.47 338.027 1256.47 337.958V324.674H1253.82L1253.18 321.514L1256.23 313.726C1256.32 313.518 1256.32 313.295 1256.25 313.086L1253.52 304.361L1254.88 295.131C1254.89 295.084 1254.9 295.037 1254.9 294.993V270.657C1254.9 270.123 1254.47 269.688 1253.94 269.688H1253.68H1224.28H1209.85C1209.32 269.688 1208.89 270.123 1208.89 270.657V295.249L1208.31 298.351H1203.78V234.186H1218.99V243.895H1242V234.186H1279.42V243.895V297.657V370.283Z" fill="#D6EDFF"/>
<path d="M114.283 404.982H60.5094V293.217H114.283V404.982Z" fill="#AEDAFF"/>
<path d="M1380.74 290.805H1378.96V289.008H1375.69V263.605H1372.41V289.008H1336.08V433.067H1378.96V323.15H1380.74V290.805Z" fill="#AEDAFF"/>
<path d="M273.69 432.395H232.501V212.585H273.69V432.395Z" fill="#AEDAFF"/>
<path d="M553.929 432.395H470.403V201.879H553.929V432.395Z" fill="#AEDAFF"/>
<path d="M558.514 434.595H642.04V263.605H558.514V434.595Z" fill="#AEDAFF"/>
<path d="M769.98 434.595H817.602V140.232H769.98V434.595Z" fill="#AEDAFF"/>
<path d="M1122.42 216.995H1093.48V267.202H1075.85V434.595H1104.8V384.388H1122.42V216.995Z" fill="#AEDAFF"/>
<path d="M1289.66 395.083V380.728H1281.66V370.284H1271.42V356.78C1271.42 353.111 1268.13 350.134 1264.05 350.134H1256.47V324.674H1251.75V322.989C1251.75 319.316 1248.45 316.35 1244.38 316.35H1214.19V298.351H1203.78V209.392H1158.42V373.77H1141.86V330.54H1134.62V321.424C1134.62 321.317 1134.56 321.213 1134.48 321.144L1133.91 320.679L1134.26 315.995C1134.26 315.937 1134.25 315.881 1134.23 315.83L1133.89 315.014V311.965C1133.89 311.925 1133.89 311.876 1133.87 311.836L1133.27 310.183C1133.2 309.999 1133 309.884 1132.78 309.91C1132.57 309.946 1132.42 310.109 1132.42 310.299V313.423L1132 313.541L1131.44 312.559C1131.35 312.405 1131.15 312.316 1130.95 312.36C1130.75 312.405 1130.61 312.559 1130.61 312.744V314.677L1129.44 314.877H1128.05V283.363C1128.05 283.15 1127.85 282.972 1127.61 282.972H1127.38C1127.36 282.916 1127.33 282.865 1127.29 282.82L1126.67 282.149V280.928C1126.67 280.714 1126.47 280.537 1126.24 280.537H1125.64C1125.4 280.537 1125.19 280.714 1125.19 280.928V282.019L1125.11 282.086V271.768C1125.17 271.694 1125.19 271.612 1125.19 271.516V261.505C1125.19 261.412 1125.17 261.331 1125.11 261.264V259.16C1125.11 259.084 1125.08 259.006 1125.03 258.939L1124.46 258.194L1123.52 255.817C1123.46 255.646 1123.28 255.536 1123.08 255.547C1122.91 255.554 1122.73 255.674 1122.68 255.838L1122.26 257.212L1119.34 250.832V248.525C1119.34 248.469 1119.32 248.413 1119.3 248.362L1118.61 246.981V244.812C1118.61 244.678 1118.53 244.553 1118.41 244.488L1117.76 244.107V242.958C1117.76 242.904 1117.75 242.859 1117.73 242.812L1117.05 241.346V238.963C1117.05 238.744 1116.85 238.568 1116.61 238.568H1115.88C1115.65 238.568 1115.45 238.744 1115.45 238.963V241.858L1115 242.812C1114.98 242.859 1114.96 242.904 1114.96 242.958V244.107L1114.33 244.488C1114.2 244.553 1114.12 244.678 1114.12 244.812V246.981L1113.43 248.362C1113.41 248.413 1113.4 248.469 1113.4 248.525V250.776L1113.39 250.794L1110.49 257.297L1110.05 255.838C1109.99 255.674 1109.83 255.554 1109.64 255.547C1109.46 255.536 1109.28 255.646 1109.21 255.817L1108.27 258.194L1107.7 258.939C1107.65 259.006 1107.62 259.084 1107.62 259.16V263.279C1107.61 263.324 1107.59 263.371 1107.59 263.427V265.297C1107.59 265.346 1107.61 265.393 1107.62 265.439V267.408C1107.61 267.454 1107.59 267.501 1107.59 267.561V269.423C1107.59 269.479 1107.61 269.527 1107.62 269.579V270.811C1107.61 270.848 1107.59 270.904 1107.59 270.96V282.071L1107.53 282.019V280.928C1107.53 280.714 1107.34 280.537 1107.1 280.537H1106.5C1106.26 280.537 1106.06 320.021 1106.06 320.242V321.462L1105.44 322.136C1105.4 322.181 1105.37 322.232 1105.35 322.288H1105.11C1104.87 322.288 1104.68 322.46 1104.68 322.679V354.189H1102.62L1102.12 354.104V352.063C1102.12 351.886 1101.98 351.715 1101.78 351.679C1101.59 351.63 1101.39 351.715 1101.29 351.886L1100.73 352.857L1100.31 352.737V349.619C1100.31 349.429 1100.16 349.266 1099.95 349.224C1099.73 349.202 1099.53 349.313 1099.45 349.498L1098.86 351.156C1098.84 351.192 1098.84 351.241 1098.84 351.281V354.332L1098.5 355.144C1098.48 355.196 1098.47 355.254 1098.48 355.307L1098.59 356.777L1089.05 354.651L1082.38 356.289V342.715H1060.45V327.387C1060.45 327.269 1060.4 327.159 1060.29 327.084L1060.28 327.077V292.083H1063.34V199.957H1025.7V283.046H1004.01V335.034H991.416V348.177H980.67V344.09L975.115 343.007V297.628L971.922 298.113V259.434H967.222V243.368L953.541 231.042V318.771H946.036V297.3H946.065V239.501H937.337V238.87C937.337 238.751 937.279 238.633 937.169 238.561L935.23 237.202V232.101C935.23 231.99 935.179 231.89 935.09 231.805L933.506 230.522V225.052C933.506 224.987 933.483 224.919 933.45 224.863L932.487 223.254V218.22C932.487 218.191 932.487 218.17 932.483 218.155C932.454 217.985 932.228 216.86 931.688 215.963C931.476 210.412 931.123 200.904 930.895 193.977L930.848 189.512C930.843 189.402 930.805 189.309 930.756 189.21C930.732 188.468 930.718 187.803 930.709 187.262V185.645L930.694 185.354H929.391V187.258C929.293 192.62 928.69 208.615 928.396 216.298C927.987 217.117 927.808 218.01 927.777 218.155C927.777 218.17 927.772 218.191 927.772 218.22V223.254L926.809 224.863C926.78 224.919 926.754 224.987 926.754 225.052V230.522L925.177 231.805C925.087 231.89 925.038 231.99 925.038 232.101V237.202L923.088 238.561C922.981 238.633 922.923 238.751 922.923 238.87V239.501H915.177V268.903C914.989 269.793 914.849 270.69 914.777 271.601H914.67C914.426 271.601 914.23 271.786 914.23 271.996V276.318H892.109V318.309H880.9L878.81 304.428C878.798 304.374 878.769 304.325 878.725 304.274L878.6 304.14L878.508 303.566L877.087 302.16H876.654L875.095 300.572L873.938 271.473C873.938 271.38 873.873 271.288 873.793 271.235C873.695 271.185 873.579 271.174 873.478 271.217L857.981 277.358L857.972 276.802H857.952L857.079 232.63C857.079 232.467 856.931 232.345 856.755 232.345H856.751C856.572 232.345 856.433 232.463 856.427 232.626L854.564 280.691L843.01 300.804C842.99 300.833 842.978 300.871 842.978 300.904L839.959 327.809H833.579V338.105H784.871V182.228H760.31V280.094H739.667V271.145H719.726L718.573 227.197H718.607V226.806H718.562L716.704 155.81L716.724 155.301H708.527V140.745H675.909V155.301H671.657L669.687 230.673H668.939V233.991H663.683V230.673H662.792V233.991H657.536V230.673H656.643V233.991H651.392V230.673H650.493V233.991H648.704V219.405C648.704 215.734 645.403 212.766 641.323 212.766H619.134C615.057 212.766 611.754 215.734 611.754 219.405V268.767H611.29V257.544C611.29 257.326 611.091 257.156 610.847 257.156H610.599V253.392C610.599 253.182 610.401 253.004 610.162 253.004V346.413H581.205V214.297H563.366V274.972H544.525V244.868H515.567V280.508H516.534V312.508H438.304V323.449H435.429V316.335C435.429 316.006 435.134 315.741 434.777 315.741H432.827V312.508H426.862V315.741H424.724C424.369 315.741 424.074 316.006 424.074 316.335V323.449H414.865C414.503 323.449 414.208 323.712 414.208 324.037V333.249C414.208 333.581 414.503 333.841 414.865 333.841H415.881V336.681H414.865C414.503 336.681 414.208 336.955 414.208 337.279V366.023L412.225 362.216V345.361H411.727V342.844L399.267 331.618L396.437 334.171L394.919 332.812L393.766 331.765V326.785H389.543V322.741H385.178V309.216H381.486L381.372 335.71H369.527V386.567L360.78 390.37L354.966 381.107V368.247L332.284 355.562V322.217C332.284 322 332.086 321.829 331.842 321.829H330.971V312.392C330.971 312.289 330.922 312.186 330.846 312.121C330.806 311.943 330.629 311.803 330.415 311.803H328.96V310.035C328.96 309.961 328.941 309.899 328.896 309.836L322.521 299.775V246.457H257.849V317.832L256.782 316.123V416.781L248.593 366.054V344.73C249.094 343.701 249.371 342.563 249.371 341.363C249.371 337.061 245.788 333.514 241.165 333.004L240.823 327.675H239.322L238.985 332.99C234.68 333.417 231.261 336.464 230.731 340.323H228.473V349.967H225.48V366.054L206.18 416.781V371.249H202.537V295.952H201.491V294.616C201.491 290.947 198.183 287.977 194.11 287.977H181.816C177.742 287.977 174.44 290.947 174.44 294.616V295.952H172.191L169.384 384.466C168.32 382.79 168.854 384.466 168.854 384.466V391.872L165.581 388.92H159.738V393.342H70.5913V434.2H165.019V434.267H197.849V434.352H226.725V434.267H291.405C291.465 434.421 291.599 434.548 291.789 434.548H339.704C339.896 434.548 340.026 434.421 340.088 434.267H365.792V434.548H447.353L452.179 434.559L452.166 434.548H453.515C453.74 434.548 453.939 434.432 454.055 434.267H493.735V434.323H511.465C511.503 434.444 511.611 434.548 511.76 434.548H618.593V434.437H618.748V434.385C618.781 434.359 618.781 434.307 618.806 434.267H625.721C625.808 434.432 625.991 434.548 626.205 434.548H662.718C662.935 434.548 663.12 434.432 663.207 434.267H665.336C665.47 434.432 665.673 434.548 665.919 434.548H722.435C722.674 434.548 722.885 434.432 723.012 434.267H727.211V434.548H764.749V434.267H771.535C771.548 434.421 771.68 434.548 771.858 434.548H830.517C830.53 434.548 830.542 434.524 830.559 434.524H835.927C835.943 434.524 835.949 434.548 835.969 434.548H889.475C889.645 434.548 889.776 434.421 889.79 434.267H900.5C900.562 434.421 900.694 434.548 900.887 434.548H1088.36C1088.54 434.548 1088.68 434.421 1088.69 434.267H1098.17C1098.23 434.417 1098.36 434.528 1098.55 434.528H1124.36C1124.39 434.548 1124.42 434.548 1124.44 434.548H1127.61C1127.65 434.548 1127.67 434.548 1127.7 434.528H1134.18C1134.36 434.528 1134.51 434.417 1134.56 434.267H1179.67V435.901H1238.16L1256.47 434.274H1289.66V432.458H1347.6V395.083H1289.66Z" fill="#5AA5FF"/>
<path d="M1300.62 344.168L1300.81 331.477L1285.64 328.764V310.6H1282.93V328.222L1269.66 331.477V344.168H1265.08V367.621H1208.61V432.074H1265.08V434.007H1307.55V344.168H1300.62Z" fill="#5AA5FF"/>
<path d="M836.38 393.57V252.259H834.106V232.918H825.194V221.562H805.387V196.782H803.345V221.562H798.684V248.963H796.941V252.259H789.365L786.433 393.57H762.381V434.584H846.628V393.57H836.38Z" fill="#AEDAFF"/>
<path d="M743.433 179.714L743.489 179.22H743.262V179.345L743.347 179.481C743.385 179.544 743.413 179.644 743.433 179.714Z" fill="#0047F7"/>
<path d="M233.726 283.195V263.052H229.382V238.588H215.387V224.921H209.595V191.107H205.735V224.921H201.388V238.588H197.046V434.281H225.038V435.002H231.795V435.727H236.621V283.195H233.726Z" fill="#5AA5FF"/>
<path d="M368.296 391.158V391.089H363.215L363.211 352.634V352.085V351.362V349.916V349.196V347.747V347.024V345.58V344.857V343.41V342.688V341.241V340.515V339.069V338.346V336.905V336.179V334.733V334.01V332.565V331.841V330.396V329.673V328.226V327.504V326.055V325.335V323.886V323.166V321.719V320.996V319.55V318.823V317.38V316.657V315.213V314.49V313.041V312.318V310.872V310.149V308.706V307.981V306.535V305.812V304.366V303.643V302.197V301.476V300.028V299.305V297.858V297.138V295.688V294.966V293.523V292.8V291.352V290.629V289.183V288.458V287.016V286.293V284.847V284.122V282.674V281.951V280.504V279.786V278.34V277.615V276.169V275.444V274V273.277V271.831V271.11V269.662V268.941V267.491V266.768V265.322V264.603V263.157V262.432V260.984V260.263V258.817V258.098V256.65V255.925V254.479V253.756V252.308V251.585V250.139V249.42V247.974V247.247V245.803V245.08V243.632V242.911V241.465V240.742V239.296V238.573V237.125V236.4V234.96V234.233V232.791V232.066V230.618V229.897V228.451V227.728V226.282V225.559V224.109V223.39V221.94V221.223V219.773V219.05V217.606V216.883V215.435V214.712V213.991V213.268V212.545V211.099V210.372V208.93V208.203V206.759V206.036V204.59V203.867V202.421V201.698V200.252V199.531V198.085V197.362V195.912V195.193V193.743V192.996H363.092L363.048 192.955C363.032 192.886 363.009 192.821 362.972 192.759L362.616 192.148H362.786V190.876H361.939H361.872L360.805 189.053C360.678 188.832 360.447 188.695 360.188 188.695L326.336 188.709V184.088C326.729 184.085 327.051 183.847 327.051 183.452C327.051 183.057 326.729 182.824 326.336 182.82V181.97C326.731 181.965 327.051 181.519 327.051 181.12C327.051 180.723 326.731 180.281 326.336 180.274V179.283V178.998V178.873V142.411C326.336 142.009 325.887 141.688 325.489 141.688C325.09 141.688 324.641 142.009 324.641 142.411V178.152H323.669C323.269 178.152 322.946 178.476 322.946 178.873V188.711L319.838 188.713C319.441 188.713 319.13 189.039 319.13 189.439V385.577H289.884H289.761C289.361 385.577 289.039 385.897 289.039 386.298V414.843H283.402C283.004 414.843 282.682 415.167 282.682 415.568V425.871V430.24V430.535H282.747C282.859 430.787 283.109 430.965 283.402 430.965H289.761H319.825H320.527H324.341H362.498C362.69 430.965 362.873 430.853 363.009 430.717C363.058 430.666 363.09 430.599 363.123 430.535H363.221H364.059H364.906H365.755H367.999C368.397 430.535 368.721 430.216 368.721 429.814V391.812C368.721 391.52 368.546 391.272 368.296 391.158Z" fill="#0047F7"/>
<path d="M637.929 302.277C637.901 302.114 637.833 301.971 637.737 301.848V297.133C637.737 296.6 637.306 296.169 636.772 296.169H636.435C636.475 292.882 635.96 284.296 630.193 276.45C629.527 275.539 628.171 273.921 626.601 272.506H626.636V271.534H625.437C625.354 271.471 625.27 271.407 625.187 271.346V268.637H625.672V267.671H625.187V251.248H625.672V250.284H625.187V248.835H624.704H624.256L624.238 225.189L623.742 225.166V213.09H623.257H622.775H621.808H621.329H620.847V225.166L620.403 225.197L620.441 248.835H620.364H619.397V250.284H618.915V251.248H619.397V267.671H618.915V268.637H619.397V270.462C616.976 271.77 614.197 274.689 612.904 276.45C607.121 284.32 606.637 292.934 606.69 296.202C606.235 296.28 605.882 296.656 605.882 297.133V302.446C605.882 302.573 605.909 302.692 605.955 302.803C605.967 302.837 605.991 302.864 606.007 302.895C606.047 302.968 606.088 303.037 606.145 303.096C606.172 303.127 606.204 303.149 606.235 303.176C606.295 303.225 606.355 303.269 606.425 303.303C606.463 303.321 606.503 303.336 606.547 303.35C606.583 303.361 606.615 303.385 606.655 303.392C608.24 304.193 614.843 310.807 614.269 327.959C614.233 329.088 614.182 330.411 614.122 331.908H612.639C612.109 331.908 611.676 332.341 611.676 332.876V336.257C611.676 336.791 612.109 337.223 612.639 337.223H613.896C613.135 354.234 611.466 385.833 609.071 428.465L608.937 430.871C608.92 431.134 609.016 431.395 609.199 431.59C609.382 431.782 609.636 431.889 609.9 431.889H633.731C633.998 431.889 634.251 431.779 634.436 431.59C634.617 431.391 634.711 431.13 634.695 430.864C634.554 428.512 631.186 366.145 629.926 337.223H632.428C632.96 337.223 633.391 336.791 633.391 336.257V332.876C633.391 332.341 632.96 331.908 632.428 331.908H629.703C629.645 330.44 629.596 329.11 629.556 327.959C628.975 310.401 635.93 303.905 637.32 303.346C637.757 303.185 638.014 302.734 637.929 302.277Z" fill="#0031CC"/>
<path d="M1337.03 223.039C1336.97 223.026 1335.44 222.685 1333.11 222.685C1331.14 222.685 1328.71 222.924 1326.13 223.732V190.231C1326.13 189.619 1325.63 189.124 1325.02 189.124H1321.5C1320.89 189.124 1320.4 189.619 1320.4 190.231V226.512C1319.76 226.953 1319.12 227.44 1318.49 227.98C1318.16 228.275 1317.83 228.591 1317.51 228.942C1317.22 229.266 1316.93 229.622 1316.65 229.993L1316.63 230.02C1316.34 230.428 1316.05 230.867 1315.78 231.334C1315.49 230.863 1315.21 230.415 1314.9 230C1314.63 229.622 1314.33 229.268 1314.04 228.942C1313.73 228.596 1313.4 228.275 1313.05 227.98C1310.9 226.121 1308.62 224.894 1306.41 224.091V190.231C1306.41 189.619 1305.92 189.124 1305.3 189.124H1301.79C1301.17 189.124 1300.68 189.619 1300.68 190.231V222.817C1299.85 222.738 1299.06 222.707 1298.34 222.707C1295.93 222.707 1294.35 223.053 1294.28 223.069C1293.78 223.182 1293.42 223.629 1293.42 224.146V430.306C1293.42 430.916 1293.91 431.409 1294.53 431.409H1315.25C1315.48 431.409 1315.69 431.342 1315.86 431.228H1316.64C1316.81 431.342 1317.02 431.409 1317.25 431.409H1336.78C1337.39 431.409 1337.89 430.916 1337.89 430.306V224.118C1337.89 223.6 1337.53 223.153 1337.03 223.039Z" fill="#0047F7"/>
<path d="M1256.45 337.87L1253.19 321.514L1256.23 313.726C1256.32 313.517 1256.32 313.295 1256.25 313.086L1253.52 304.361L1254.88 295.131C1254.89 295.084 1254.9 295.036 1254.9 294.993V270.657C1254.9 270.123 1254.47 269.688 1253.94 269.688H1253.68H1224.28H1209.85C1209.32 269.688 1208.89 270.123 1208.89 270.657V295.248L1207.16 304.437C1207.13 304.591 1207.14 304.744 1207.18 304.883L1209.54 312.978L1206.51 320.724C1206.43 320.912 1206.42 321.114 1206.47 321.309L1210.6 337.851L1207.71 347.406C1207.68 347.493 1207.67 347.591 1207.67 347.689V434.522C1207.67 434.781 1207.77 435.022 1207.95 435.204C1208.13 435.385 1208.37 435.484 1208.63 435.484H1208.63L1222.68 435.405C1222.8 435.457 1222.93 435.484 1223.06 435.484H1223.06L1223.31 435.483L1223.32 435.484H1223.33L1237.38 435.406C1237.49 435.454 1237.62 435.484 1237.75 435.484C1237.89 435.484 1238.02 435.455 1238.14 435.401L1253.94 435.312C1254.47 435.31 1254.9 434.877 1254.9 434.346L1254.55 347.432L1256.45 338.25C1256.48 338.125 1256.48 337.998 1256.45 337.87Z" fill="#2779FF"/>
<path d="M1013.36 250.369L1007.12 242.136C1007.06 242.05 1006.99 241.98 1006.9 241.925L998.903 236.583C998.751 236.482 998.588 236.419 998.392 236.429L995.683 236.453V236.118H995.971C996.473 236.118 996.88 235.712 996.88 235.212V231.01C996.88 230.504 996.473 230.1 995.971 230.1H993.096V225.535C993.096 225.033 992.69 224.624 992.189 224.624H990.623L990.615 223.58C990.956 223.448 991.193 223.118 991.193 222.732V199.09C991.193 198.639 990.867 198.264 990.438 198.192L990.315 171.497C990.538 171.332 990.682 171.065 990.682 170.768C990.682 170.71 990.677 170.654 990.664 170.6L990.143 147.107C990.132 146.61 989.728 146.215 989.234 146.215H985.736C985.24 146.215 984.836 146.61 984.827 147.107L984.302 170.748C984.296 170.993 984.389 171.228 984.561 171.406C984.591 171.435 984.622 171.462 984.655 171.489L984.474 198.206C984.074 198.3 983.777 198.657 983.777 199.09V222.732C983.777 223.062 983.949 223.346 984.208 223.506L984.195 224.624H983.123C982.621 224.624 982.216 225.033 982.216 225.535V230.1H979C978.497 230.1 978.089 230.504 978.089 231.01V235.212C978.089 235.712 978.497 236.118 979 236.118H979.286V236.453L976.969 236.429C976.789 236.431 976.605 236.482 976.454 236.583L968.451 241.925C968.366 241.98 968.296 242.05 968.232 242.136L961.993 250.369C961.781 250.649 961.748 251.024 961.91 251.335L966.228 259.723C966.293 259.852 966.385 259.959 966.5 260.042L974.18 265.685C974.334 265.799 974.524 265.866 974.718 265.866H976.525V268.521C976.525 269.023 976.929 269.429 977.434 269.429H977.765V274.649C977.765 275.039 978.008 275.367 978.35 275.503V279.946H978.247C978.117 279.946 977.994 279.975 977.883 280.025H974.262C973.956 280.025 973.688 280.181 973.521 280.404C973.333 280.571 973.213 280.815 973.213 281.087V286.061C973.213 286.279 973.289 286.478 973.418 286.638C973.554 286.969 973.88 287.205 974.262 287.205H978.35V296.086C978.35 296.252 978.392 296.406 978.47 296.54V427.7C978.47 428.203 978.879 428.611 979.38 428.611H996.967C997.471 428.611 997.876 428.203 997.876 427.7V287.205H1002.09C1002.59 287.205 1002.99 286.797 1002.99 286.295V280.94C1002.99 280.433 1002.59 280.025 1002.09 280.025H999.87C999.757 279.975 999.634 279.946 999.502 279.946H997.876V275.475C998.191 275.332 998.408 275.021 998.408 274.649V269.429H998.743C999.243 269.429 999.651 269.023 999.651 268.521V265.866H1000.64C1000.83 265.866 1001.02 265.799 1001.18 265.685L1008.86 260.042C1008.97 259.959 1009.06 259.852 1009.13 259.723L1013.45 251.335C1013.61 251.024 1013.58 250.649 1013.36 250.369Z" fill="#0031CC"/>
<path d="M1084.56 181.231C1084.86 181.104 1085.06 180.816 1085.06 180.475C1085.06 180.117 1084.83 179.819 1084.52 179.704L1084.5 179.151L1086.02 120.319C1086.02 120.267 1086.02 120.212 1086.01 120.158L1078.07 42.0244C1078 41.392 1077.47 40.9136 1076.83 40.91L1068.86 40.8882C1068.81 40.8719 1068.71 40.8973 1068.64 40.91H1052.47C1051.91 40.91 1051.4 41.2906 1051.27 41.8432L1045.71 63.7001H1045.38L1038.42 42.2727C1038.26 41.7635 1037.78 41.4156 1037.24 41.4156H1029.63C1028.98 41.4156 1028.43 41.932 1028.39 42.5879L1020.78 179.218C1020.78 179.265 1020.78 179.303 1020.78 179.35L1020.82 180.207C1020.77 180.345 1020.75 180.492 1020.78 180.642L1020.86 181.012L1023.82 241.761L1021.29 302.152C1021.28 302.181 1021.28 302.218 1021.29 302.254L1026.22 429.177L1026.04 430.532C1025.99 430.894 1026.09 431.25 1026.33 431.518C1026.57 431.788 1026.9 431.947 1027.26 431.947H1082.92C1083.59 431.947 1084.14 431.409 1084.16 430.74L1086.02 360.786L1086.36 241.291C1086.36 241.271 1086.36 241.244 1086.36 241.222V240.706L1084.56 181.231Z" fill="#0031CC"/>
<path d="M433.261 425.304C433.088 425.12 432.849 425 432.577 425H431.358C431.335 424.886 431.291 424.781 431.226 424.679C431.114 424.507 428.409 420.417 421.968 418.031L421.95 418.076C421.369 417.781 420.225 417.406 417.954 416.855C417.362 416.71 416.929 416.197 416.893 415.59L414.912 382.439V381.739C414.912 381.678 414.891 381.625 414.862 381.578L401.367 155.591C401.358 155.437 401.311 155.281 401.224 155.143L398.738 151.216C398.62 151.03 398.548 150.814 398.528 150.595C398.218 147.163 397.894 144.22 397.557 141.814C397.55 141.752 397.545 141.692 397.545 141.629V102.862C397.545 102.427 397.246 102.048 396.822 101.943C396.393 101.845 395.962 102.045 395.763 102.433C395.102 103.721 393.158 103.261 393.145 101.813L392.513 24.9351C392.509 24.4277 392.1 24.0127 391.593 24H391.57C391.072 24 390.657 24.3914 390.628 24.8934L385.2 123.655L385.1 123.862C385.04 123.99 385.008 124.13 385.008 124.273V127.111C385.008 127.136 385.006 127.161 385.004 127.187L382.551 171.823C382.544 171.85 382.535 171.877 382.535 171.908C382.535 171.926 382.542 171.941 382.544 171.957L382.495 172.841C382.455 173.575 381.848 174.151 381.113 174.151H379.112C378.692 174.151 378.323 174.429 378.207 174.831C378.091 175.237 378.26 175.67 378.615 175.891C378.629 175.898 380.114 176.83 380.954 177.569C381.227 177.81 381.426 178.007 381.573 178.165C381.832 178.441 381.955 178.817 381.926 179.194L370.916 330.081C370.91 330.101 370.903 330.121 370.903 330.145V330.261L367.256 380.237C367.182 380.295 367.131 380.38 367.131 380.482V381.882C367.131 381.917 367.131 381.949 367.128 381.984L364.707 415.164C364.664 415.766 364.233 416.27 363.648 416.411C361.584 416.907 360.17 417.393 359.311 417.732C359.288 417.741 359.266 417.748 359.241 417.755C351.917 420.008 348.513 424.435 348.373 424.623C348.286 424.737 348.228 424.866 348.203 425H346.271C345.99 425 345.748 425.127 345.576 425.319C345.319 425.451 345.125 425.66 345.125 425.946V429.416C345.125 429.7 345.313 429.902 345.567 430.028C345.739 430.228 345.985 430.362 346.271 430.362H432.577C432.854 430.362 433.098 430.235 433.27 430.043C433.553 429.916 433.772 429.711 433.772 429.416V425.946C433.772 425.649 433.547 425.435 433.261 425.304Z" fill="#0031CC"/>
<path d="M242.904 290.095H247.973V292.436H242.904V290.095ZM255.772 290.095V308.071H251.091V290.095H255.772ZM263.96 290.095V308.071H258.893V290.095H263.96ZM272.151 290.095V308.071H266.692V290.095H272.151ZM279.951 290.095V308.071H274.881V290.095H279.951ZM288.139 290.095V308.071H282.681V290.095H288.139ZM214.515 263.86C214.654 263.86 214.79 263.877 214.929 263.88C215.981 264.063 216.99 264.516 217.902 265.192L217.991 265.752L218.453 265.683L218.444 265.631C220.752 267.64 222.344 271.065 222.344 274.787C222.344 277.103 221.661 279.533 220.477 281.506L220.455 281.51L220.459 281.535C219.025 283.911 216.863 285.616 214.265 285.616C214.151 285.616 214.044 285.643 213.944 285.681C207.891 285.395 203.055 280.625 203.055 274.787C203.055 268.764 208.196 263.86 214.515 263.86ZM290.187 308.071H290.091V285.801H288.139V287.361H282.681V285.801H279.951V287.361H274.881V285.801H272.151V287.361H266.692V285.801H263.96V287.361H258.893V285.801H255.772V287.361H251.091V285.801H247.973V287.361H242.904V285.801H240.173V287.368V290.18V292.436H239.644H237.883L232.447 257.246C232.378 256.79 231.985 256.531 231.524 256.531H190.564C190.1 256.531 189.707 256.848 189.638 257.303L184.295 293.148C184.264 293.353 184.317 293.547 184.407 293.721V430.191C184.407 430.71 184.851 431.375 185.369 431.375H217.185H223.736H249.004C249.282 431.375 249.525 431.179 249.694 430.918H290.187C290.703 430.918 291.123 430.498 291.123 429.979V309.007C291.123 308.491 290.703 308.071 290.187 308.071Z" fill="#2779FF"/>
<path d="M545.072 329.416C544.943 329.416 544.827 329.453 544.71 329.489C544.594 329.453 544.478 329.416 544.349 329.416H545.072ZM604.015 302.364H595.748V293.161C595.748 291.061 594.305 289.812 591.888 289.812H548.391C546.098 289.812 545.072 291.769 545.072 293.161V302.364H544.588H538.863C536.489 302.364 535.421 304.048 535.421 305.24V330.837C535.421 332.096 536.881 333.278 538.014 333.278H538.316H541.695V431.299C541.695 432.402 542.718 433.741 543.987 433.741H597.741C598.857 433.741 599.61 432.763 599.61 431.299V333.278H601.057H604.015C605.134 333.278 605.882 332.299 605.882 330.837V305.24C605.882 303.856 605.297 302.364 604.015 302.364Z" fill="#0047F7"/>
<path d="M145.347 294.457C145.37 294.881 145.393 295.305 145.417 295.731H145.406C145.384 295.305 145.364 294.881 145.343 294.457H145.347ZM145.311 293.797C145.315 293.879 145.319 293.958 145.324 294.04H145.322C145.318 293.958 145.314 293.879 145.311 293.797ZM146.806 318.06C147.008 321.052 147.214 324.027 147.422 326.961C147.475 329.351 147.531 331.667 147.59 333.901C147.271 328.846 146.943 323.511 146.623 318.06H146.806ZM145.685 301.199H145.733C145.741 301.346 145.75 301.493 145.759 301.64V302.473H145.752C145.729 302.049 145.707 301.623 145.685 301.199ZM145.598 299.52H145.634C145.658 299.942 145.683 300.366 145.708 300.788H145.663C145.641 300.366 145.619 299.942 145.598 299.52ZM145.511 297.833H145.536C145.56 298.255 145.585 298.677 145.609 299.101H145.576C145.554 298.679 145.533 298.255 145.511 297.833ZM146.525 316.373H146.693C146.721 316.796 146.749 317.22 146.777 317.642H146.599C146.574 317.22 146.55 316.797 146.525 316.373ZM146.427 314.686H146.58C146.608 315.11 146.637 315.534 146.665 315.958H146.501C146.476 315.534 146.452 315.11 146.427 314.686ZM146.331 313.001H146.47C146.497 313.425 146.525 313.847 146.553 314.271H146.403C146.379 313.847 146.355 313.425 146.331 313.001ZM146.176 309.633H146.252C146.279 310.055 146.306 310.477 146.333 310.899H146.212C146.2 310.687 146.188 310.475 146.176 310.261V309.633ZM146.443 312.586H146.307C146.283 312.164 146.259 311.742 146.235 311.318H146.36C146.387 311.74 146.415 312.164 146.443 312.586ZM146.225 309.212H146.176V308.435C146.192 308.694 146.209 308.953 146.225 309.212ZM145.427 296.147H145.441C145.464 296.57 145.488 296.992 145.512 297.414H145.49C145.469 296.992 145.448 296.57 145.427 296.147ZM203.336 431.777C201.444 425.245 194.667 392.785 194.598 392.454C194.542 392.182 194.31 391.986 194.035 391.965C194.004 391.816 193.988 391.736 193.988 391.736H193.423H193.394C193.394 391.736 193.091 390.616 192.575 388.368H190.877C190.781 387.915 190.674 387.358 190.564 386.769C190.455 386.186 190.337 385.577 190.218 384.997H191.824C191.605 383.877 191.364 382.75 191.11 381.621H189.503C189.494 381.582 189.486 381.542 189.477 381.5C189.273 380.494 189.052 379.414 188.825 378.256H190.431C190.225 377.131 190.011 376.006 189.787 374.882H188.177C188.17 374.841 188.163 374.803 188.155 374.761C187.954 373.726 187.752 372.635 187.547 371.51H189.157C188.965 370.385 188.766 369.265 188.557 368.14H186.946C186.939 368.104 186.933 368.067 186.926 368.031L186.709 366.755C186.596 366.108 186.484 365.453 186.367 364.768H187.98C187.793 363.642 187.609 362.519 187.415 361.397H185.803C185.798 361.365 185.793 361.33 185.787 361.298C185.613 360.236 185.439 359.145 185.264 358.025H186.879C186.703 356.903 186.53 355.78 186.35 354.651H184.737L184.722 354.559C184.598 353.745 184.474 352.919 184.346 352.074L184.232 351.286H185.84L185.344 347.912H183.743L183.254 344.54H184.867C184.712 343.416 184.558 342.295 184.404 341.169H182.787L182.776 341.079C182.669 340.31 182.568 339.533 182.465 338.747L182.341 337.801H183.953C183.806 336.675 183.66 335.552 183.515 334.427H181.902L181.746 333.229C181.657 332.511 181.563 331.785 181.472 331.055H183.089C182.948 329.929 182.814 328.809 182.673 327.682H181.058C181.054 327.657 181.051 327.632 181.049 327.606C180.955 326.832 180.862 326.057 180.77 325.269L180.659 324.312H182.274C182.144 323.192 182.01 322.063 181.882 320.94H180.268L180.113 319.588C180.037 318.917 179.962 318.243 179.89 317.573H181.505C181.447 317.011 181.393 316.558 181.337 316.054C181.268 315.433 181.203 314.759 181.139 314.201H179.524C179.521 314.181 179.519 314.157 179.517 314.137C179.406 313.032 179.301 311.928 179.202 310.827H180.821C180.719 309.707 180.629 308.583 180.544 307.454H178.927L178.923 307.411C178.84 306.295 178.762 305.188 178.695 304.08H180.315C180.243 302.961 180.181 301.839 180.123 300.715H178.505L178.503 300.677C178.447 299.559 178.396 298.449 178.353 297.343H179.971C179.932 296.218 179.899 295.095 179.865 293.969H178.246L178.244 293.953C178.217 292.86 178.202 291.778 178.186 290.708L178.184 290.599H179.803C179.787 289.475 179.781 288.352 179.776 287.227H178.155C178.15 286.094 178.155 284.965 178.172 283.862V283.856H179.79C179.799 282.736 179.814 281.609 179.837 280.484H178.219C178.239 279.353 178.271 278.237 178.307 277.132V277.115H179.926C179.96 275.99 180.006 274.867 180.056 273.745H178.438C178.483 272.622 178.537 271.509 178.599 270.402L178.601 270.369H180.219C180.274 269.248 180.343 268.124 180.415 266.999H178.798C178.869 265.879 178.945 264.766 179.028 263.672L179.032 263.63H180.65C180.735 262.509 180.824 261.378 180.92 260.26H179.303C179.397 259.14 179.504 258.027 179.606 256.946C179.607 256.926 179.609 256.904 179.611 256.884H181.23C181.337 255.764 181.452 254.639 181.572 253.51H179.957C180.078 252.394 180.198 251.296 180.33 250.219L180.335 250.167L180.339 250.145H181.954C182.09 249.021 182.224 247.893 182.369 246.771H180.754C180.904 245.602 181.051 244.495 181.199 243.482C181.203 243.453 181.206 243.428 181.212 243.399H182.825C182.981 242.279 183.149 241.154 183.312 240.034H181.701C181.869 238.901 182.043 237.807 182.211 236.765L182.218 236.718C182.222 236.698 182.226 236.678 182.229 236.66H183.839C183.891 236.094 183.942 236.076 183.986 235.783C184.132 234.953 184.273 233.849 184.413 233.287H182.805C183.004 232.133 183.205 231.053 183.395 230.044C183.403 229.999 183.412 229.959 183.421 229.913H185.025C185.257 228.79 185.479 227.668 185.688 226.545H184.085C184.337 225.315 184.567 224.253 184.77 223.336L184.779 223.301C184.8 223.261 184.822 223.216 184.837 223.174H186.403C186.43 223.174 186.462 222.897 186.49 222.763C186.772 221.462 186.986 220.587 187.103 220.145C187.16 219.915 187.187 219.802 187.187 219.802H184.942H184.38H182.696H175.381C175.378 219.409 175.372 219.01 175.371 218.606H175.443V218.191H175.369C175.369 218.13 175.367 218.068 175.367 218.007C175.374 217.646 175.38 217.284 175.387 216.919H175.443V216.501H175.394C175.401 216.08 175.41 215.656 175.418 215.232H175.443V214.817H175.427C175.6 206.502 175.912 197.713 176.102 192.727C176.229 190.262 176.323 188.724 176.327 188.673C176.343 188.41 176.194 188.169 175.955 188.062L157.306 179.767C157.132 179.691 156.934 179.696 156.766 179.78C156.6 179.868 156.477 180.026 156.439 180.211C156.429 180.254 156.25 181.126 155.948 182.791H155.795V183.21H155.872C155.501 185.274 154.971 188.392 154.344 192.56L151.229 191.48V191.147H150.813V191.337L146.176 189.73V189.463H145.759V189.585L142.938 188.608C142.748 188.545 142.537 188.573 142.371 188.688C142.207 188.809 142.108 188.997 142.108 189.195C142.107 189.621 141.963 228.152 142.912 263.704H142.881V264.118H142.923C142.935 264.542 142.946 264.966 142.958 265.388H142.881V265.805H142.97C142.981 266.229 142.993 266.651 143.006 267.071H142.881V267.49H143.018C143.03 267.914 143.043 268.336 143.055 268.758H142.881V269.177H143.068C143.081 269.601 143.094 270.023 143.107 270.447H142.881V270.864H143.12C143.158 272.063 143.197 273.256 143.238 274.439C143.434 280.169 143.698 286.346 144.004 292.71V292.773H144.007C144.028 293.195 144.048 293.618 144.069 294.04H144.004V294.457H144.089C145.829 329.933 148.809 370.378 148.844 370.863C148.846 370.887 148.858 370.907 148.862 370.93L148.871 371.521C148.887 372.659 148.911 373.783 148.938 374.899L148.941 375.033C148.963 376.113 148.984 377.195 149.011 378.273C149.026 378.885 149.044 379.498 149.06 380.103L149.374 389.698C149.401 390.424 149.429 391.162 149.462 391.867C150.021 405.548 150.807 416.683 151.374 423.677V431.072H151.79V428.557C151.973 430.586 152.087 431.703 152.091 431.743C152.125 432.061 152.389 432.304 152.71 432.304L202.756 432.674H202.762H202.769C203.115 432.674 203.394 432.393 203.394 432.045C203.394 431.951 203.376 431.86 203.336 431.777Z" fill="#0031CC"/>
<path d="M498.575 179.354C498.301 178.97 497.82 178.582 497.17 178.21C494.937 176.909 490.599 175.804 485.017 175.804H484.863H482.21H482.022C480.977 175.804 479.981 175.844 479.025 175.913C479.347 175.206 479.699 174.427 480.101 173.512C482.822 167.324 484.318 161.175 485.132 156.582C486.652 160.748 489.862 165.609 496.498 171.171C496.833 171.451 497.157 171.734 497.472 172.015C497.499 172.042 497.528 172.066 497.557 172.093C497.829 172.338 498.091 172.584 498.348 172.83C505.372 179.62 507.074 186.72 507.479 189.847H495.334V187.957L499.029 182.518C499.076 182.452 499.109 182.373 499.129 182.293C499.313 181.566 499.364 180.465 498.575 179.354ZM470.383 186.473L470.546 186.696C470.43 186.903 470.316 187.107 470.195 187.329C470.258 187.042 470.32 186.756 470.383 186.473ZM482.695 157.27C481.853 161.621 480.41 167.166 477.968 172.655C477.325 174.102 476.802 175.244 476.344 176.206C475.161 176.38 474.079 176.605 473.115 176.864C476.253 167.768 480.16 161.068 482.695 157.27ZM531.983 431.552L531.215 427.693C531.19 427.56 531.139 427.432 531.065 427.321L528.146 422.854V395.946C528.146 395.366 527.673 394.891 527.092 394.891H526.906H526.795H526.609H526.203H525.915H523.397H523.14H522.531V392.437C522.531 391.854 522.06 391.383 521.479 391.383H521.242H510.519C511.428 387.181 514.019 373.56 512.602 360.477C511.178 347.312 504.861 334.352 499.451 329.52C499.272 329.358 499.094 329.204 498.919 329.063L498.692 322.667C498.812 322.451 499.004 322.098 499.243 321.643C502.095 316.259 512.609 294.567 512.609 267.106C512.609 240.374 503.123 233.161 499.596 231.399C501.982 227.384 509.913 212.976 510.065 198.56C510.244 181.911 506.856 177.118 499.623 170.808C499.505 170.705 499.386 170.598 499.268 170.495C493.661 165.521 488.04 159.747 486.565 153.596C486.425 152.97 486.255 152.36 486.181 151.771C486.141 151.359 486.045 150.946 486.045 150.539V132.969C486.045 132.386 485.574 131.914 484.993 131.914C484.412 131.914 483.939 132.386 483.939 132.969V148.504V148.507C483.885 148.627 483.851 148.759 483.843 148.899C483.84 148.937 483.765 150.247 483.487 152.394C482.552 153.505 475.223 162.542 470.244 177.897C469.277 178.363 468.585 178.863 468.232 179.357C467.457 180.446 467.457 181.532 467.604 182.298L467.734 182.782C467.788 182.949 467.837 183.047 467.837 183.047C467.895 183.164 467.986 183.27 468.1 183.344L468.513 183.907C468.089 185.591 467.703 187.341 467.356 189.144H462.586H462.19C461.802 189.144 461.448 189.358 461.263 189.699C461.163 189.876 451.478 208.033 451.478 229.007C451.478 234.152 452.115 239.291 453.075 244.123C454.554 257.91 458.015 264.987 460.953 268.597C461.364 269.516 461.69 270.206 461.891 270.621C460.39 273.964 451.829 293.812 451.829 311.283V312.389C451.822 330.254 451.82 344.402 462.929 358.317C462.786 358.695 462.559 359.282 462.295 359.96C461.478 362.049 460.115 365.541 458.21 370.726C456.769 374.641 453.41 387.683 452.543 391.087H443.093C442.521 391.087 442.056 391.539 442.041 392.109L441.99 394.153L437.804 394.095C437.518 394.081 437.252 394.204 437.049 394.402C436.85 394.599 436.74 394.869 436.74 395.154L436.73 425.384L435.184 427.33C435.103 427.432 435.045 427.549 435.005 427.674L433.821 431.444C433.719 431.762 433.776 432.112 433.975 432.384C434.174 432.65 434.489 432.81 434.824 432.81H435.514H530.612H530.952C531.268 432.81 531.564 432.678 531.765 432.427C531.966 432.188 532.044 431.864 531.983 431.552Z" fill="#0047F7"/>
<path d="M964.899 301.877C964.216 298.916 963.53 295.95 962.836 293C971.624 255.413 970.878 212.404 970.867 211.981C970.867 211.902 970.858 211.822 970.845 211.741V208.426C970.845 207.986 970.49 207.625 970.046 207.625H967.521C967.075 207.625 966.715 207.986 966.715 208.426V210.012L917.223 209.999V208.426C917.223 207.986 916.866 207.625 916.421 207.625H913.927C913.484 207.625 913.127 207.986 913.127 208.426V213.21C913.127 213.304 913.147 213.399 913.183 213.489C913.211 220.967 913.727 255.777 920.082 291.543C920.062 291.643 920.06 291.748 920.082 291.853C920.091 291.898 920.23 292.569 920.478 293.741C920.509 293.904 920.536 294.067 920.565 294.228C920.549 294.281 920.536 294.333 920.525 294.384C910.326 338.75 913.573 403.928 917.574 428.965C917.733 429.941 918.57 430.655 919.564 430.655H919.573H919.58L964.026 430.384C965.015 430.384 965.844 429.673 966.003 428.702C967.18 421.336 977.155 355.198 964.899 301.877Z" fill="#2779FF"/>
<path d="M860.092 168.503V184.005H857.267C856.871 184.005 856.547 184.332 856.547 184.728V188.894H855.763V168.503H860.092ZM869.518 168.503V184.005H866.699V168.503H869.518ZM880.626 188.894H879.015V184.728C879.015 184.332 878.689 184.005 878.287 184.005H876.13V168.503H880.626V188.894ZM896.154 138.001C895.95 137.869 895.689 137.851 895.464 137.949L881.05 144.443C880.789 144.561 880.626 144.818 880.626 145.099V151.191H875.719V127.789C875.719 127.392 875.397 127.064 875.001 127.064H874.82V119.854C874.82 119.537 874.61 119.265 874.325 119.169V102.543C874.325 102.145 874.001 101.822 873.603 101.822H872.792C872.395 101.822 872.069 102.145 872.069 102.543V119.169C871.781 119.265 871.575 119.537 871.575 119.854V127.064H871.394C870.996 127.064 870.673 127.392 870.673 127.789V151.191H866.261V127.789C866.261 127.392 865.938 127.064 865.536 127.064H865.361V119.854C865.361 119.537 865.151 119.265 864.865 119.169V102.543C864.865 102.145 864.541 101.822 864.142 101.822H863.335C862.933 101.822 862.609 102.145 862.609 102.543V119.169C862.323 119.265 862.114 119.537 862.114 119.854V127.064H861.937C861.537 127.064 861.213 127.392 861.213 127.789V151.191H855.763V145.099C855.763 144.818 855.598 144.561 855.337 144.443L840.924 137.949C840.698 137.851 840.439 137.869 840.233 138.001C840.03 138.135 839.905 138.365 839.905 138.607V431.806C839.905 432.205 840.227 432.529 840.628 432.529H843.841C843.965 432.627 844.113 432.692 844.281 432.692H892.175C892.345 432.692 892.493 432.627 892.616 432.529H895.76C896.16 432.529 896.484 432.205 896.484 431.806V138.607C896.484 138.365 896.357 138.135 896.154 138.001Z" fill="#0047F7"/>
<path d="M742.044 147.683C735.281 173.954 724.707 185.076 721.64 185.076C718.379 185.076 711.58 180.318 702.686 148.435C694.02 117.373 691.67 94.0645 691.134 87.3001C697.526 85.4301 710.233 82.2463 722.759 82.2463C736.071 82.2463 748.272 85.1801 753.543 86.6478C752.52 93.7528 747.858 125.107 742.044 147.683ZM854.611 420.966C854.606 420.488 854.218 420.107 853.746 420.107H853.742L825.447 420.187V412.767C825.447 412.287 825.062 411.901 824.582 411.901H804.851V405.999H807.006C807.482 405.999 807.871 405.611 807.871 405.133V403.194C807.871 402.719 807.482 402.333 807.006 402.333H768.074V70.0857C768.074 69.3645 767.492 68.7847 766.775 68.7847H766.31L766.292 68.7828H678.349L678.331 68.7847H677.962C677.241 68.7847 676.665 69.3645 676.665 70.0857V402.333H636.275C635.799 402.333 635.41 402.719 635.41 403.194V405.133C635.41 405.611 635.799 405.999 636.275 405.999H638.43V411.901H618.701C618.223 411.901 617.836 412.287 617.836 412.767V420.187L589.543 420.107H589.539C589.065 420.107 588.677 420.488 588.674 420.966L588.645 423.929C588.643 424.157 588.73 424.387 588.896 424.552C589.058 424.71 589.279 424.806 589.508 424.806H591.741V429.343C591.741 429.822 592.13 430.215 592.605 430.219L708.67 430.369C708.724 430.369 708.773 430.349 708.824 430.34H734.457C734.51 430.349 734.559 430.369 734.611 430.369H734.615L850.678 430.219C851.153 430.215 851.537 429.822 851.537 429.343V424.806H853.775C854.005 424.806 854.224 424.71 854.388 424.552C854.555 424.387 854.642 424.157 854.64 423.929L854.611 420.966ZM850.061 423.333V423.295H850.115C850.097 423.309 850.076 423.317 850.061 423.333ZM593.17 423.295H593.226V423.336C593.209 423.318 593.188 423.309 593.17 423.295Z" fill="#0047F7"/>
<path d="M804.361 327.057C804.125 327.32 803.888 327.581 803.656 327.851V327.057H804.361ZM858.305 352.587V352.868C858.214 352.772 858.122 352.681 858.033 352.587H858.305ZM885.85 393.006H883.163C883.129 384.042 881.516 377.894 880.163 374.326C878.103 368.337 873.297 357.15 864.239 349.563C864.128 349.47 863.989 349.42 863.849 349.42H862.75V340.852C862.75 340.628 862.571 340.448 862.348 340.448H862.192V333.662C862.192 333.441 862.01 333.26 861.785 333.26H861.334C861.11 333.26 860.932 333.441 860.932 333.662V340.448H860.777C860.552 340.448 860.373 340.628 860.373 340.852V349.42H858.912C858.573 349.42 858.305 349.691 858.305 350.025V352.38H857.834C856.851 351.373 855.841 350.422 854.809 349.563C854.702 349.47 854.562 349.42 854.419 349.42H853.322V340.852C853.322 340.628 853.143 340.448 852.915 340.448H852.759V333.662C852.759 333.441 852.578 333.26 852.357 333.26H851.904C851.683 333.26 851.501 333.441 851.501 333.662V340.448H851.345C851.122 340.448 850.941 340.628 850.941 340.852V349.42H849.482C849.145 349.42 848.875 349.697 848.875 350.03V357.36H844.991C844.852 357.36 844.718 357.405 844.611 357.492L844.166 357.851C844.135 357.869 844.106 357.9 844.082 357.927C842.893 359.304 840.019 362.802 837.226 367.522C836.492 364.597 835.84 362.675 835.536 361.838C835.565 361.732 835.565 361.62 835.534 361.517C833.202 353.339 829.15 346.02 825.813 340.901C825.806 340.878 825.797 340.859 825.777 340.845C823.727 337.707 821.953 335.398 821.022 334.238C820.999 334.211 820.975 334.18 820.944 334.157L820.398 333.687C820.287 333.597 820.149 333.542 820.001 333.542H815.141L815.139 329.918C815.163 329.898 815.179 329.875 815.179 329.84C815.179 329.81 815.163 329.784 815.139 329.766V323.768C815.15 323.598 815.092 323.435 814.978 323.31C814.864 323.19 814.701 323.118 814.535 323.118H812.666V311.678C812.666 311.454 812.485 311.274 812.262 311.274H811.982V302.238C811.982 302.017 811.802 301.837 811.581 301.837H811.031C810.81 301.837 810.629 302.017 810.629 302.238V311.274H810.35C810.126 311.274 809.945 311.454 809.945 311.678V323.118H808.516C808.369 323.118 808.225 323.174 808.112 323.275C806.897 324.375 805.706 325.569 804.545 326.851H803.656V323.727C803.656 323.39 803.383 323.118 803.05 323.118H801.183V311.678C801.183 311.454 801.002 311.274 800.777 311.274H800.497V302.238C800.497 302.017 800.318 301.837 800.095 301.837H799.546C799.323 301.837 799.144 302.017 799.144 302.238V311.274H798.864C798.641 311.274 798.46 311.454 798.46 311.678V323.118H797.035C796.885 323.118 796.74 323.174 796.627 323.275C793.406 326.184 790.631 329.5 788.25 332.928H788.183C788.127 332.928 788.079 332.97 788.079 333.026C788.079 333.06 788.101 333.086 788.127 333.104C782.448 341.332 779.046 350.19 777.293 355.684C775.635 360.406 773.66 368.504 773.641 380.349H770.237C769.901 380.349 769.631 380.621 769.631 380.958V434.939C769.631 435.272 769.901 435.544 770.237 435.544H773.918C774.014 435.604 774.125 435.642 774.246 435.642H839.875C839.996 435.642 840.108 435.604 840.202 435.544H846.891C847.028 435.544 847.148 435.492 847.249 435.416H882.558C882.662 435.416 882.761 435.385 882.848 435.336H885.85C886.187 435.336 886.457 435.068 886.457 434.731V393.614C886.457 393.282 886.187 393.006 885.85 393.006Z" fill="#0031CC"/>
<path d="M1094.47 380.44C1094.62 378.769 1094.76 377.129 1094.9 375.517H1096.75L1098.31 378.862L1094.46 380.554C1094.46 380.518 1094.47 380.476 1094.47 380.44ZM1099.18 380.732H1097.62L1098.92 380.172L1099.18 380.732ZM1125.17 140.841L1124.02 163.408C1123.95 163.558 1123.85 163.772 1123.74 164.066L1124.93 142.046L1125.17 140.841ZM1129.71 140.391L1130.03 142.038L1131.16 164.413L1131.26 164.87C1132.45 167.704 1137.14 182.423 1147.81 252.832C1151.05 274.156 1153.26 290.702 1154.95 305.251C1153.21 290.619 1150.95 273.962 1147.64 252.542C1136.17 178.176 1131.46 165.392 1130.51 163.408L1129.35 140.639C1129.35 140.591 1129.34 140.545 1129.33 140.5L1129.12 139.449C1129.41 139.672 1129.63 140.002 1129.71 140.391ZM1130.91 201.879L1135.79 193.97C1136.25 196.405 1136.74 199.034 1137.26 201.879H1130.91ZM1129.44 203.42H1137.54C1137.8 204.86 1138.06 206.35 1138.34 207.899L1129.44 203.42ZM1129.93 210.407L1138.78 210.409C1139.05 211.98 1139.34 213.607 1139.62 215.285L1129.93 210.407ZM1130.65 217.514H1140C1140.29 219.177 1140.58 220.893 1140.87 222.662L1130.65 217.514ZM1132.08 224.387H1141.16C1141.43 226.005 1141.7 227.663 1141.98 229.368L1132.08 224.387ZM1139.09 236.738C1136.33 234.351 1132.85 232.782 1129.02 232.41V231.845H1142.38C1142.64 233.436 1142.9 235.072 1143.17 236.738H1139.09ZM1140.67 238.278H1143.42C1143.76 240.394 1144.1 242.571 1144.45 244.807C1143.65 242.36 1142.35 240.142 1140.67 238.278ZM1134.29 267.258C1140.79 264.513 1145.34 258.08 1145.34 250.583C1145.34 250.562 1145.34 250.54 1145.34 250.518V250.502C1145.46 251.279 1145.58 252.055 1145.7 252.847C1146.48 257.908 1147.2 262.692 1147.88 267.258H1134.29ZM1109.18 250.487V250.489C1109.18 250.52 1109.18 250.553 1109.18 250.583C1109.18 258.08 1113.74 264.513 1120.23 267.258H1106.64C1107.32 262.692 1108.04 257.908 1108.82 252.847C1108.94 252.049 1109.06 251.268 1109.18 250.487ZM1129.02 204.309L1138.08 208.865H1129.02V204.309ZM1129.02 215.972V211.05L1138.8 215.972H1129.02ZM1129.02 222.846V217.796L1139.05 222.846H1129.02ZM1129.02 224.387H1129.89L1141.65 230.307H1129.02V224.387ZM1148.37 283.682L1149.57 279.083C1149.87 281.22 1150.16 283.302 1150.44 285.338L1148.37 283.682ZM1099.09 327.931H1099.62L1101.3 331.43L1098.63 332.756C1098.78 331.152 1098.93 329.547 1099.09 327.931ZM1105.02 278.913L1106.84 283.874L1104.09 285.897H1104.01C1104.32 283.601 1104.64 281.249 1104.98 278.828L1105.02 278.913ZM1111.1 238.278H1113.71C1112.78 239.298 1111.97 240.42 1111.29 241.632C1111.36 241.603 1111.44 241.574 1111.5 241.547C1110.92 242.578 1110.44 243.672 1110.07 244.819C1110.42 242.578 1110.76 240.396 1111.1 238.278ZM1112.14 231.845H1125.5V232.401C1121.61 232.744 1118.07 234.319 1115.28 236.738H1111.35C1111.62 235.071 1111.88 233.438 1112.14 231.845ZM1113.36 224.387H1123.01L1112.49 229.68C1112.79 227.866 1113.08 226.103 1113.36 224.387ZM1114.52 217.514H1124.44L1113.91 222.812C1113.9 222.821 1113.89 222.837 1113.87 222.846H1113.62C1113.93 221.013 1114.22 219.237 1114.52 217.514ZM1115.81 210.035V210.403L1125.16 210.405L1114.85 215.596C1115.17 213.674 1115.5 211.818 1115.81 210.035ZM1125.5 203.42V203.494L1116.13 208.209C1116.43 206.505 1116.72 204.866 1117.01 203.289V203.42H1125.5ZM1118.72 194.048L1119.03 194.573L1119.39 195.262L1119.4 195.206L1123.33 201.879H1117.26C1117.78 199.062 1118.26 196.461 1118.72 194.048ZM1125.5 224.387V230.307H1113.43L1125.2 224.387H1125.5ZM1125.5 222.846H1116.03L1125.5 218.079V222.846ZM1125.5 215.972H1116.29L1125.5 211.333V215.972ZM1125.5 208.865H1117.01L1125.5 204.596V208.865ZM1147.79 285.897L1147.99 285.121L1148.96 285.897H1147.79ZM1155.9 332.843L1153.01 331.149L1154.11 327.931H1155.43C1155.59 329.576 1155.75 331.21 1155.9 332.843ZM1102.04 332.988H1101.42L1101.92 332.74L1102.04 332.988ZM1107.58 285.897H1106.39L1107.33 285.204L1107.58 285.897ZM1152.39 332.988L1152.53 332.571L1153.25 332.988H1152.39ZM1164.48 378.892C1163.88 371.925 1163.34 365.532 1162.81 359.177C1160.06 326.209 1158.08 302.39 1150.5 252.424C1140.27 184.944 1135.51 168.177 1133.86 164.046L1132.76 142.066C1132.75 141.884 1132.73 141.701 1132.69 141.529L1132.37 139.875C1131.98 137.872 1130.25 136.419 1128.24 136.419C1128.08 136.419 1127.91 136.432 1127.83 136.443C1127.71 136.452 1127.59 136.47 1127.48 136.492C1127.37 136.474 1127.28 136.459 1127.21 136.454C1127.07 136.432 1126.89 136.419 1126.71 136.419C1124.71 136.419 1122.97 137.872 1122.58 139.875L1122.25 141.587C1122.22 141.779 1122.2 141.97 1122.19 142.136L1121.09 164.046C1119.45 168.172 1114.69 184.933 1104.46 252.424C1096.87 302.39 1094.89 326.209 1092.13 359.29C1091.65 365.163 1091.09 371.816 1090.48 378.892C1089.18 393.916 1088.72 427.684 1088.96 430.978C1089.11 433.199 1090.95 434.941 1093.16 434.941H1161.8C1164 434.941 1165.84 433.201 1166 430.983C1166.24 427.649 1165.78 393.833 1164.48 378.892ZM1156.38 378.856L1158 375.517H1159.62C1159.76 377.129 1159.91 378.769 1160.05 380.44C1160.06 380.509 1160.07 380.585 1160.07 380.656L1156.38 378.856ZM1155.47 380.732L1155.74 380.165L1156.93 380.732H1155.47Z" fill="#0047F7"/>
<path d="M86.7629 367.069C86.8011 367.069 86.8395 367.071 86.8779 367.071C87.2293 367.08 87.2653 367.087 87.4837 367.087C87.7252 367.087 88.211 367.08 88.2119 367.069L88.2123 367.067V419.629H86.7629V367.069ZM80.4903 340.427V347.664H78.5134C78.5134 347.327 78.4877 347.002 78.4915 346.696C78.6981 345.123 79.5093 342.057 80.464 340.461L80.4903 340.427ZM105.153 347.664H101.59C101.603 346.138 101.505 344.844 101.407 343.955C101.413 343.833 101.418 343.712 101.426 343.59C101.428 343.56 101.43 343.529 101.432 343.5C101.448 343.271 101.466 343.045 101.488 342.822C101.492 342.779 101.497 342.737 101.501 342.693C101.523 342.476 101.548 342.262 101.577 342.054C101.582 342.021 101.588 341.99 101.593 341.956C101.662 341.488 101.75 341.055 101.863 340.682C101.977 340.62 102.103 340.584 102.248 340.584C103.678 340.584 104.862 343.92 105.462 345.984C105.506 346.508 105.531 347.031 105.531 347.561C105.531 347.593 105.529 347.629 105.529 347.664H105.153ZM100.536 347.571C100.543 347.628 100.547 347.664 100.547 347.664H96.0985C96.0985 347.664 95.9379 342.933 96.6792 340.64C98.3294 341.612 99.4707 347.341 99.4707 347.341L100.512 347.39C100.521 347.457 100.531 347.53 100.536 347.571ZM93.5294 341.941C94.0927 343.364 94.423 345.085 94.6001 346.267C94.7152 347.097 94.756 347.664 94.756 347.664H93.5189V341.918L93.5294 341.941ZM76.8542 340.994C77.4993 343.377 77.3851 347.664 77.3851 347.664H73.4299C73.4299 347.575 73.4299 347.486 73.4299 347.394L74.4812 347.341C74.4812 347.341 75.4703 342.442 76.8542 340.994ZM71.4518 339.414H71.4569L71.4406 339.437L71.4518 339.414ZM69.5102 347.561C69.5102 347.423 69.5175 347.294 69.5211 347.158C69.8197 345.859 70.8152 341.952 72.1262 340.874C72.5706 343.284 72.075 347.664 72.075 347.664H69.5137C69.5137 347.629 69.5102 347.593 69.5102 347.561ZM125.13 431.79C124.933 431.687 106.521 421.862 101.119 418.823C100.714 418.595 100.375 418.401 100.131 418.257C96.9926 416.407 95.8809 413.765 95.8809 408.17C95.8809 403.185 95.9213 370.796 95.9289 365.165C95.9763 365.141 96.0212 365.114 96.0685 365.09C96.3788 364.938 96.6839 364.775 96.9848 364.606C97.1063 364.539 97.2269 364.469 97.3472 364.398C97.6425 364.224 97.9333 364.043 98.2186 363.854C98.2693 363.822 98.3216 363.791 98.3722 363.757C98.7129 363.526 99.0437 363.282 99.3689 363.032C99.4372 362.977 99.5049 362.925 99.5724 362.871C101.354 361.459 102.885 359.747 104.085 357.806H104.14V357.721C104.171 357.668 104.202 357.616 104.233 357.563C105.516 355.544 106.324 353.292 106.706 350.891C106.735 350.717 106.765 350.543 106.791 350.369C106.797 350.32 106.803 350.27 106.81 350.221C106.929 349.351 106.995 348.463 106.995 347.561C106.995 346.051 106.818 344.583 106.493 343.172C106.486 343.143 106.48 343.116 106.473 343.088C106.389 342.731 106.297 342.378 106.194 342.03C104.647 336.645 100.872 332.231 95.7476 329.877C95.5171 329.768 95.2859 329.661 95.0505 329.562C95.0225 329.551 94.9962 329.536 94.9682 329.523V320.619H93.0375V318.682H94.4869V309.511H93.0375V305.162H81.4543V309.511H80.0054V318.682H81.4543V320.619H80.4903V329.335C73.1748 332.155 67.9703 339.256 67.9703 347.561C67.9703 355.24 72.4235 361.896 78.8815 365.083C78.8881 370.468 78.9284 403.158 78.9284 408.17C78.9284 413.765 77.8129 416.407 74.6675 418.257C71.1528 420.327 49.8766 431.679 49.6629 431.79L47.1056 433.152H47.2658H71.4683H71.553H73.2253H73.3064H101.563H101.565H103.081H103.087H127.606H127.687L125.13 431.79Z" fill="#0031CC"/>
</g>
<defs>
<clipPath id="clip0_842_1950">
<rect width="1440" height="311" fill="white" transform="translate(-15)"/>
</clipPath>
</defs>
</svg>
